<?xml version="1.0" encoding="UTF-8"?>
<svg width="24px" height="24px" viewBox="0 0 24 24" version="1.1" xmlns="http://www.w3.org/2000/svg" xmlns:xlink="http://www.w3.org/1999/xlink">
    <title>icon/action/add/selected</title>
    <g id="icon/action/add/selected" stroke="none" stroke-width="1" fill="none" fill-rule="evenodd">
        <path d="M19.5,10.75 L13.25,10.75 L13.25,4.49999997 C13.25,3.80964403 12.6903559,3.24999996 12,3.24999996 C11.3096441,3.24999996 10.75,3.80964403 10.75,4.49999997 L10.75,10.75 L4.49999997,10.75 C3.80964403,10.75 3.24999996,11.3096441 3.24999996,12 C3.24999996,12.6903559 3.80964403,13.25 4.49999997,13.25 L10.75,13.25 L10.75,19.5 C10.75,20.190356 11.3096441,20.75 12,20.75 C12.6903559,20.75 13.25,20.190356 13.25,19.5 L13.25,13.25 L19.5,13.25 C20.190356,13.25 20.75,12.6903559 20.75,12 C20.75,11.3096441 20.190356,10.75 19.5,10.75 Z" id="Path" fill="#0592D9"></path>
    </g>
</svg>