<?xml version="1.0" encoding="UTF-8"?>
<svg width="24px" height="24px" viewBox="0 0 24 24" version="1.1" xmlns="http://www.w3.org/2000/svg" xmlns:xlink="http://www.w3.org/1999/xlink">
    <title>icon/user_file/analytics/default</title>
    <defs>
        <path d="M20.5,0.999999954 L20.5,18 L15.5,23 L5.49999996,23 C3.84999997,23 2.49999996,21.65 2.49999996,20 L2.49999996,20 L2.49999996,0.999999954 L20.5,0.999999954 Z M19,2.49999996 L3.99999997,2.49999996 L3.99999997,20 C3.99999997,20.85 4.64999997,21.5 5.49999997,21.5 L5.49999997,21.5 L14.5,21.5 L14.5,18.5 C14.5,17.65 15.15,17 16,17 L16,17 L19,17 L19,2.49999996 Z M16.15,7.24999998 C16.4,6.94999998 16.9,6.94999998 17.2,7.19999998 C17.5,7.44999998 17.5,7.94999998 17.25,8.24999998 L17.25,8.24999998 L12.8,13.3 L9.79999999,10.8 L6.84999998,14.25 C6.69999998,14.4 6.49999998,14.5 6.29999998,14.5 C6.14999998,14.5 5.94999997,14.45 5.84999997,14.3 C5.49999997,14.05 5.49999997,13.55 5.74999997,13.25 L5.74999997,13.25 L9.69999999,8.69999999 L12.7,11.2 Z" id="path-1"></path>
    </defs>
    <g id="icon/user_file/analytics/default" stroke="none" stroke-width="1" fill="none" fill-rule="evenodd">
        <mask id="mask-2" fill="white">
            <use xlink:href="#path-1"></use>
        </mask>
        <use id="Combined-Shape" fill="#262626" xlink:href="#path-1"></use>
    </g>
</svg>