<?xml version="1.0" encoding="UTF-8"?>
<svg width="24px" height="24px" viewBox="0 0 24 24" version="1.1" xmlns="http://www.w3.org/2000/svg" xmlns:xlink="http://www.w3.org/1999/xlink">
    <title>icon/service/settings/selected</title>
    <g id="icon/service/settings/selected" stroke="none" stroke-width="1" fill="none" fill-rule="evenodd">
        <path d="M20.235,14.5 L23,14 L23,9.99999995 L20.235,9.49999995 C19.9005926,9.4385834 19.6203014,9.21146226 19.4908972,8.89705036 C19.3614929,8.58263847 19.4007067,8.22401685 19.595,7.94499998 L21.19,5.63499997 L18.365,2.80999996 L16.055,4.40499997 C15.7759831,4.59929326 15.4173615,4.63850709 15.1029496,4.50910284 C14.7885377,4.37969859 14.5614166,4.09940735 14.5,3.76499997 L14,0.999999954 L9.99999995,0.999999954 L9.49999995,3.75999997 C9.43998252,4.09529823 9.21341808,4.37698647 8.89878368,4.50749398 C8.58414927,4.6380015 8.22472212,4.5993773 7.94499998,4.40499997 L5.63499997,2.80999996 L2.80999996,5.63499997 L4.40499997,7.94499998 C4.59929326,8.22401685 4.63850709,8.58263847 4.50910284,8.89705036 C4.37969859,9.21146226 4.09940735,9.4385834 3.76499997,9.49999995 L0.999999954,9.99999995 L0.999999954,14 L3.75999997,14.5 C4.09529823,14.5600175 4.37698647,14.7865819 4.50749398,15.1012163 C4.6380015,15.4158507 4.5993773,15.7752779 4.40499997,16.055 L2.80999996,18.365 L5.63499997,21.19 L7.94499998,19.595 C8.22401685,19.4007067 8.58263847,19.3614929 8.89705036,19.4908972 C9.21146226,19.6203014 9.4385834,19.9005926 9.49999995,20.235 L9.99999995,23 L14,23 L14.5,20.235 C14.5614166,19.9005926 14.7885377,19.6203014 15.1029496,19.4908972 C15.4173615,19.3614929 15.7759831,19.4007067 16.055,19.595 L18.365,21.19 L21.19,18.365 L19.595,16.055 C19.4007067,15.7759831 19.3614929,15.4173615 19.4908972,15.1029496 C19.6203014,14.7885377 19.9005926,14.5614166 20.235,14.5 Z M12,15 C10.3431457,15 8.99999999,13.6568543 8.99999999,12 C8.99999999,10.3431457 10.3431457,8.99999999 12,8.99999999 C13.6568543,8.99999999 15,10.3431457 15,12 C15,12.7956495 14.6839295,13.5587112 14.1213204,14.1213204 C13.5587112,14.6839295 12.7956495,15 12,15 Z" id="Shape" fill="#3f3f3f"></path>
    </g>
</svg>