<?xml version="1.0" encoding="UTF-8"?>
<svg width="24px" height="24px" viewBox="0 0 24 24" version="1.1" xmlns="http://www.w3.org/2000/svg" xmlns:xlink="http://www.w3.org/1999/xlink">
    <title>icon/action/more/selected</title>
    <g id="icon/action/more/selected" stroke="none" stroke-width="1" fill="none" fill-rule="evenodd">
        <path d="M12,9.49999999 C13.3807119,9.49999999 14.5,10.6192881 14.5,12 C14.5,13.3807119 13.3807119,14.5 12,14.5 C10.6192881,14.5 9.49999999,13.3807119 9.49999999,12 C9.49999999,10.6192881 10.6192881,9.49999999 12,9.49999999 Z M19,9.49999999 C20.3807119,9.49999999 21.5,10.6192881 21.5,12 C21.5,13.3807119 20.3807119,14.5 19,14.5 C17.6192881,14.5 16.5,13.3807119 16.5,12 C16.5,10.6192881 17.6192881,9.49999999 19,9.49999999 Z M4.99999996,9.49999999 C6.38071185,9.49999999 7.49999996,10.6192881 7.49999996,12 C7.49999996,13.3807119 6.38071185,14.5 4.99999996,14.5 C3.61928809,14.5 2.49999996,13.3807119 2.49999996,12 C2.49999996,10.6192881 3.61928809,9.49999999 4.99999996,9.49999999 Z" id="Combined-Shape" fill="#262626"></path>
    </g>
</svg>